<svg width="59" height="40" viewBox="0 0 59 40" fill="none" xmlns="http://www.w3.org/2000/svg">
<path d="M33.625 9.5C32.7083 9.5 31.875 9.66667 31.125 10C30.375 10.3333 29.7083 10.7917 29.125 11.375C28.5417 11.9583 28.0833 12.625 27.75 13.375C27.4167 14.125 27.25 14.9167 27.25 15.75C27.25 16.6667 27.4167 17.5 27.75 18.25C28.0833 19 28.5417 19.6667 29.125 20.25C29.7083 20.8333 30.375 21.2917 31.125 21.625C31.875 21.9583 32.7083 22.125 33.625 22.125C34.4583 22.125 35.25 21.9583 36 21.625C36.75 21.2917 37.4167 20.8333 38 20.25C38.5833 19.6667 39.0417 19 39.375 18.25C39.7083 17.5 39.875 16.6667 39.875 15.75C39.875 14.9167 39.7083 14.125 39.375 13.375C39.0417 12.625 38.5833 11.9583 38 11.375C37.4167 10.7917 36.75 10.3333 36 10C35.25 9.66667 34.4583 9.5 33.625 9.5ZM33.625 20C33.0417 20 32.4583 19.9167 31.875 19.75C31.375 19.5 30.9583 19.1667 30.625 18.75C30.2083 18.4167 29.875 18 29.625 17.5C29.4583 16.9167 29.375 16.3333 29.375 15.75C29.375 15.1667 29.4583 14.625 29.625 14.125C29.875 13.625 30.2083 13.2083 30.625 12.875C30.9583 12.4583 31.375 12.1667 31.875 12C32.4583 11.75 33.0417 11.625 33.625 11.625C34.125 11.625 34.625 11.75 35.125 12C35.7083 12.1667 36.1667 12.4583 36.5 12.875C36.9167 13.2083 37.2083 13.625 37.375 14.125C37.625 14.625 37.75 15.1667 37.75 15.75C37.75 16.3333 37.625 16.9167 37.375 17.5C37.2083 18 36.9167 18.4167 36.5 18.75C36.1667 19.1667 35.7083 19.5 35.125 19.75C34.625 19.9167 34.125 20 33.625 20ZM8.375 0.125V31.5H58.75V0.125H8.375ZM56.625 7.125V29.5H10.5V2.125H56.625V7.125ZM47.5 33.625H6.25V4.25H4.25V35.75H54.5V33.625H52.5H47.5ZM43.25 37.875H2.125V8.5H0V39.875H50.375V37.875H48.25H43.25ZM13.625 4.375H19.875V6.375H13.625V4.375ZM13.625 25.25H19.875V27.375H13.625V25.25ZM47.25 4.375H53.5V6.375H47.25V4.375ZM47.25 25.25H53.5V27.375H47.25V25.25Z" fill="#020202"/>
</svg>
