<svg width="57" height="43" viewBox="0 0 57 43" fill="none" xmlns="http://www.w3.org/2000/svg">
<path d="M0 33C0 33.4167 0 34.1667 0 35.25C0 36.25 0 36.9167 0 37.25C0 37.5 0.0833333 37.8333 0.25 38.25C0.5 38.6667 0.958333 38.875 1.625 38.875C2.125 38.875 3.875 38.875 6.875 38.875C9.875 38.875 12.2917 38.875 14.125 38.875C14.7083 38.875 15.125 38.875 15.375 38.875C15.7083 38.875 15.875 38.875 15.875 38.875H16.25C16.25 38.875 16.2917 38.875 16.375 38.875C16.4583 38.875 16.5833 38.875 16.75 38.875C16.75 39.375 16.75 39.8333 16.75 40.25C16.75 40.5833 16.75 40.8333 16.75 41C16.75 41.4167 16.875 41.875 17.125 42.375C17.4583 42.7917 18.0417 43 18.875 43C19.4583 43 21.625 43 25.375 43C29.125 43 32.0833 43 34.25 43C35 43 35.5417 43 35.875 43C36.2917 43 36.5 43 36.5 43H36.875C36.875 43 37.0833 43 37.5 43C37.9167 43 38.4583 43 39.125 43C41.375 43 44.375 43 48.125 43C51.875 43 54.0417 43 54.625 43C55.375 43 55.875 42.7917 56.125 42.375C56.4583 41.875 56.625 41.4167 56.625 41C56.625 40.6667 56.625 39.875 56.625 38.625C56.625 37.2917 56.625 36.3333 56.625 35.75C56.625 35.25 56.5 34.7083 56.25 34.125C56 33.5417 55.4583 33.0833 54.625 32.75C54.125 32.5 53.4167 32.2083 52.5 31.875C51.5833 31.5417 50.625 31.1667 49.625 30.75C48.5417 30.4167 47.4583 30.0833 46.375 29.75C45.375 29.3333 44.4167 29 43.5 28.75C43.4167 28.75 43.3333 28.7083 43.25 28.625C43.25 28.4583 43.25 28.0833 43.25 27.5C43.25 26.8333 43.2917 26.2917 43.375 25.875C43.4583 25.375 43.5417 24.9583 43.625 24.625C43.875 24.125 44.0833 23.5417 44.25 22.875C44.5 22.2083 44.6667 21.5 44.75 20.75C45.0833 20.5 45.375 20.0833 45.625 19.5C45.9583 18.8333 46.25 17.9167 46.5 16.75C46.6667 15.8333 46.7083 15.1667 46.625 14.75C46.625 14.25 46.5417 13.8333 46.375 13.5C46.375 13.4167 46.375 13.375 46.375 13.375C46.375 13.2917 46.375 13.25 46.375 13.25C46.2917 13 46.2917 12.4167 46.375 11.5C46.4583 10.5 46.5833 9.5 46.75 8.5C46.8333 7.91667 46.75 7.04167 46.5 5.875C46.3333 4.625 45.7917 3.45833 44.875 2.375C44.625 1.95833 44.2917 1.58333 43.875 1.25C43.4583 0.833333 42.9583 0.5 42.375 0.25C41.7917 -0.0833333 41.125 -0.375 40.375 -0.625C39.625 -0.875 38.7917 -1 37.875 -1H35.75C34.75 -1 33.875 -0.875 33.125 -0.625C32.375 -0.375 31.7083 -0.0833333 31.125 0.25C30.5417 0.5 30.0417 0.833333 29.625 1.25C29.2917 1.58333 28.9583 1.95833 28.625 2.375C27.7917 3.45833 27.25 4.625 27 5.875C26.75 7.04167 26.7083 7.91667 26.875 8.5C27.0417 9.5 27.125 10.5 27.125 11.5C27.2083 12.4167 27.25 13 27.25 13.25C27.25 13.25 27.2083 13.2917 27.125 13.375C27.125 13.375 27.125 13.4167 27.125 13.5C27.0417 13.8333 26.9583 14.25 26.875 14.75C26.7917 15.1667 26.875 15.8333 27.125 16.75C27.2917 17.9167 27.5417 18.8333 27.875 19.5C28.2083 20.0833 28.5 20.5 28.75 20.75C28.8333 21.5 28.9583 22.2083 29.125 22.875C29.375 23.5417 29.625 24.125 29.875 24.625C30.0417 25.0417 30.2083 25.5 30.375 26C30.5417 26.5 30.625 27 30.625 27.5C30.625 28.0833 30.5833 28.4167 30.5 28.5C30.5 28.5833 30.4583 28.6667 30.375 28.75C29.9583 28.8333 29.5417 28.9583 29.125 29.125C28.7917 29.2083 28.4167 29.3333 28 29.5C27.5 29.3333 26.9583 29.1667 26.375 29C25.7917 28.75 25.25 28.5417 24.75 28.375C24.1667 28.125 23.5833 27.9167 23 27.75C22.5 27.5833 22.0417 27.4583 21.625 27.375C21.4583 27.2917 21.375 27.2083 21.375 27.125C21.375 27.0417 21.375 26.75 21.375 26.25C21.375 25.75 21.375 25.3333 21.375 25C21.4583 24.5833 21.5833 24.25 21.75 24C21.9167 23.5833 22.0833 23.125 22.25 22.625C22.4167 22.0417 22.5417 21.4583 22.625 20.875C22.7917 20.625 23 20.25 23.25 19.75C23.5 19.25 23.75 18.5417 24 17.625C24.0833 16.875 24.0833 16.3333 24 16C24 15.5833 23.9583 15.2083 23.875 14.875C23.875 14.7917 23.875 14.75 23.875 14.75C23.7917 14.5833 23.7917 14.125 23.875 13.375C23.9583 12.5417 24.0417 11.75 24.125 11C24.2083 10.5 24.1667 9.75 24 8.75C23.8333 7.75 23.375 6.79167 22.625 5.875C22.4583 5.625 22.2083 5.375 21.875 5.125C21.5417 4.79167 21.125 4.5 20.625 4.25C20.2083 4 19.6667 3.79167 19 3.625C18.4167 3.375 17.75 3.25 17 3.25H15.25C14.5 3.25 13.7917 3.375 13.125 3.625C12.5417 3.79167 12.0417 4 11.625 4.25C11.125 4.5 10.7083 4.79167 10.375 5.125C10.0417 5.375 9.79167 5.625 9.625 5.875C8.875 6.79167 8.41667 7.75 8.25 8.75C8.08333 9.75 8.04167 10.5 8.125 11C8.20833 11.75 8.29167 12.5417 8.375 13.375C8.45833 14.125 8.45833 14.5833 8.375 14.75C8.375 14.75 8.375 14.7917 8.375 14.875C8.20833 15.2083 8.08333 15.5833 8 16C8 16.3333 8.08333 16.875 8.25 17.625C8.5 18.5417 8.75 19.25 9 19.75C9.25 20.25 9.45833 20.625 9.625 20.875C9.70833 21.4583 9.83333 22.0417 10 22.625C10.1667 23.125 10.3333 23.5833 10.5 24C10.6667 24.3333 10.7917 24.7083 10.875 25.125C11.0417 25.4583 11.125 25.8333 11.125 26.25C11.125 26.75 11.125 27.0417 11.125 27.125C11.125 27.2083 11.0417 27.25 10.875 27.25C10.2083 27.5 9.45833 27.75 8.625 28C7.79167 28.25 6.95833 28.5417 6.125 28.875C5.29167 29.125 4.5 29.4167 3.75 29.75C3 30 2.41667 30.2083 2 30.375C1.33333 30.625 0.833333 31 0.5 31.5C0.166667 32 0 32.5 0 33ZM18.875 35.75C18.875 35.6667 18.9583 35.5 19.125 35.25C19.2917 34.9167 19.5833 34.6667 20 34.5C20.5833 34.25 21.2917 33.9583 22.125 33.625C23.0417 33.2917 24.0417 32.9583 25.125 32.625C26.125 32.2917 27.125 31.9583 28.125 31.625C29.2083 31.2917 30.125 31 30.875 30.75C31.7917 30.5 32.3333 30.0417 32.5 29.375C32.6667 28.625 32.75 28 32.75 27.5C32.75 26.75 32.625 26.0833 32.375 25.5C32.2083 24.8333 32 24.25 31.75 23.75C31.5833 23.3333 31.4167 22.8333 31.25 22.25C31.0833 21.6667 30.9583 21.0833 30.875 20.5L30.75 19.875L30.375 19.375C30.2083 19.2917 30 19.0417 29.75 18.625C29.5833 18.125 29.375 17.375 29.125 16.375C28.9583 15.625 28.875 15.125 28.875 14.875C28.9583 14.625 29.0417 14.4167 29.125 14.25V14.125C29.125 14.125 29.125 14.0833 29.125 14C29.2083 13.9167 29.25 13.875 29.25 13.875V13.75C29.3333 13.25 29.3333 12.4167 29.25 11.25C29.1667 10 29.0417 8.95833 28.875 8.125C28.7917 7.79167 28.8333 7.16667 29 6.25C29.1667 5.33333 29.5833 4.45833 30.25 3.625C30.5833 3.20833 30.9167 2.875 31.25 2.625C31.6667 2.29167 32.125 2.04167 32.625 1.875C33.0417 1.625 33.5 1.45833 34 1.375C34.5833 1.20833 35.2083 1.08333 35.875 1H37.75C38.5 1.08333 39.1667 1.20833 39.75 1.375C40.3333 1.54167 40.875 1.75 41.375 2C41.7917 2.25 42.125 2.54167 42.375 2.875C42.7083 3.125 43 3.375 43.25 3.625C43.9167 4.45833 44.3333 5.33333 44.5 6.25C44.6667 7.16667 44.7083 7.79167 44.625 8.125C44.4583 8.95833 44.3333 10 44.25 11.25C44.1667 12.4167 44.1667 13.2083 44.25 13.625V13.75C44.3333 13.8333 44.375 13.9167 44.375 14C44.375 14.0833 44.4167 14.1667 44.5 14.25C44.5 14.4167 44.5 14.625 44.5 14.875C44.5833 15.125 44.5417 15.625 44.375 16.375C44.2083 17.375 44 18.125 43.75 18.625C43.5 19.0417 43.3333 19.2917 43.25 19.375L42.75 19.875V20.5C42.6667 21.0833 42.5 21.6667 42.25 22.25C42.0833 22.8333 41.9167 23.3333 41.75 23.75C41.5833 24.25 41.4167 24.7917 41.25 25.375C41.1667 25.9583 41.125 26.6667 41.125 27.5C41.125 28.0833 41.2083 28.7083 41.375 29.375C41.5417 30.0417 42.0417 30.5 42.875 30.75C43.7083 31 44.6667 31.3333 45.75 31.75C46.8333 32.0833 47.875 32.4167 48.875 32.75C49.875 33.0833 50.7917 33.4167 51.625 33.75C52.5417 34.0833 53.25 34.375 53.75 34.625C54.0833 34.7917 54.2917 34.9583 54.375 35.125C54.4583 35.2917 54.5 35.5 54.5 35.75V41H18.875V35.75ZM2.125 33C2.125 32.9167 2.16667 32.8333 2.25 32.75C2.33333 32.5833 2.5 32.4583 2.75 32.375C3.25 32.125 3.83333 31.875 4.5 31.625C5.25 31.375 6.04167 31.0833 6.875 30.75C7.70833 30.5 8.5 30.25 9.25 30C10.0833 29.75 10.8333 29.5 11.5 29.25C12.4167 29 12.9167 28.5417 13 27.875C13.1667 27.2083 13.25 26.6667 13.25 26.25C13.25 25.6667 13.1667 25.125 13 24.625C12.8333 24.0417 12.625 23.5 12.375 23C12.2917 22.75 12.1667 22.4167 12 22C11.8333 21.5 11.75 21.0417 11.75 20.625L11.625 20L11.25 19.5C11.1667 19.4167 11.0417 19.2083 10.875 18.875C10.7083 18.5417 10.5417 18 10.375 17.25C10.2917 16.6667 10.25 16.2917 10.25 16.125C10.25 15.9583 10.25 15.8333 10.25 15.75V15.625H10.375C10.375 15.5417 10.375 15.5 10.375 15.5C10.375 15.4167 10.375 15.375 10.375 15.375V15.25H10.5C10.5833 14.75 10.5833 14 10.5 13C10.4167 11.9167 10.2917 11.125 10.125 10.625C10.125 10.375 10.1667 9.91667 10.25 9.25C10.4167 8.58333 10.75 7.91667 11.25 7.25C11.4167 6.91667 11.625 6.66667 11.875 6.5C12.2083 6.25 12.5417 6.04167 12.875 5.875C13.2917 5.70833 13.6667 5.58333 14 5.5C14.4167 5.41667 14.875 5.33333 15.375 5.25H16.875C18.0417 5.33333 18.9167 5.58333 19.5 6C20.1667 6.41667 20.6667 6.83333 21 7.25C21.5 7.91667 21.7917 8.58333 21.875 9.25C22.0417 9.91667 22.125 10.375 22.125 10.625C21.9583 11.2083 21.8333 12 21.75 13C21.6667 14 21.6667 14.75 21.75 15.25C21.8333 15.3333 21.875 15.4167 21.875 15.5C21.875 15.5833 21.9167 15.6667 22 15.75C22 15.8333 22 15.9583 22 16.125C22 16.2917 21.9583 16.6667 21.875 17.25C21.7083 18 21.5417 18.5417 21.375 18.875C21.2083 19.2083 21.0833 19.4167 21 19.5L20.625 20L20.5 20.625C20.5 21.0417 20.4167 21.5 20.25 22C20.0833 22.4167 19.9167 22.7917 19.75 23.125C19.5833 23.5417 19.4583 24 19.375 24.5C19.2917 25 19.25 25.5833 19.25 26.25C19.25 26.75 19.2917 27.3333 19.375 28C19.5417 28.5833 20.0833 29.0417 21 29.375C21.5 29.4583 22.0833 29.625 22.75 29.875C23.4167 30.125 24.0833 30.3333 24.75 30.5C23.6667 30.9167 22.625 31.3333 21.625 31.75C20.625 32.0833 19.8333 32.375 19.25 32.625C18.4167 32.9583 17.7917 33.4583 17.375 34.125C16.9583 34.7083 16.75 35.25 16.75 35.75C16.75 35.9167 16.75 36.0833 16.75 36.25C16.75 36.4167 16.75 36.5833 16.75 36.75H2.125V33Z" fill="#050505"/>
</svg>
