<svg width="151" height="51" viewBox="0 0 151 51" fill="none" xmlns="http://www.w3.org/2000/svg">
<path d="M50.1001 35.2057C49.9652 35.0761 49.8986 34.8798 49.8986 34.6204V22.7625H45.9967C45.6997 22.7625 45.4945 22.7046 45.383 22.5889C45.2714 22.4733 45.2156 22.277 45.2156 22.0018V21.4165C45.2156 21.1413 45.2714 20.9433 45.383 20.8188C45.4945 20.6962 45.6979 20.6348 45.9967 20.6348H56.6567C56.9536 20.6348 57.1624 20.6962 57.2812 20.8188C57.4 20.9415 57.4594 21.1413 57.4594 21.4165V22.0018C57.4594 22.277 57.4 22.4733 57.2812 22.5889C57.1624 22.7046 56.9536 22.7625 56.6567 22.7625H52.7548V34.6204C52.7548 34.8815 52.6918 35.0761 52.5658 35.2057C52.4398 35.3354 52.2203 35.402 51.9071 35.402H50.7481C50.4493 35.402 50.2333 35.3354 50.1001 35.2057Z" fill="black"/>
<path d="M57.76 34.2401C56.7125 33.2481 56.187 31.8986 56.187 30.1899C56.187 28.4811 56.7107 27.1316 57.76 26.1397C58.8075 25.1477 60.2977 24.6517 62.2306 24.6517C64.1636 24.6517 65.6574 25.1477 66.7138 26.1397C67.7703 27.1316 68.2976 28.4811 68.2976 30.1899C68.2976 31.8986 67.7703 33.2481 66.7138 34.2401C65.6574 35.232 64.1636 35.728 62.2306 35.728C60.2995 35.728 58.8093 35.232 57.76 34.2401ZM64.6405 32.796C65.1912 32.2018 65.4648 31.3343 65.4648 30.1899C65.4648 29.0612 65.1894 28.2025 64.6405 27.6171C64.0898 27.03 63.2871 26.7373 62.2324 26.7373C61.1922 26.7373 60.3931 27.03 59.8351 27.6171C59.2772 28.2042 58.9982 29.0612 58.9982 30.1899C58.9982 31.3185 59.2772 32.1843 59.8351 32.7854C60.3931 33.3866 61.1922 33.6863 62.2324 33.6863C63.2871 33.6863 64.0898 33.3901 64.6405 32.796Z" fill="black"/>
<path d="M72.1112 33.7301C70.729 32.3981 70.0378 30.4948 70.0378 28.0184C70.0378 25.5578 70.7326 23.658 72.122 22.3173C73.5114 20.9783 75.4641 20.3088 77.9766 20.3088C78.9881 20.3088 79.9311 20.4105 80.8094 20.612C81.6859 20.8153 82.4148 21.1045 82.9943 21.4813C83.1293 21.5689 83.1959 21.6618 83.1959 21.7635C83.1959 21.8353 83.1653 21.923 83.1077 22.0246L82.4616 23.1112C82.3716 23.2409 82.2834 23.3057 82.1934 23.3057C82.1484 23.3057 82.0512 23.2689 81.9037 23.1971C80.8922 22.6468 79.6882 22.3716 78.2915 22.3716C76.5962 22.3716 75.2661 22.8378 74.2997 23.7719C73.3332 24.7061 72.8491 26.1204 72.8491 28.0184C72.8491 29.9287 73.317 31.3483 74.2547 32.2754C75.1906 33.2026 76.4774 33.6652 78.1134 33.6652C78.7073 33.6652 79.2868 33.6179 79.8537 33.5233C80.4189 33.4286 80.8796 33.2954 81.236 33.1219V29.105H78.2915C77.9946 29.105 77.7858 29.0437 77.667 28.921C77.5482 28.7983 77.4889 28.5985 77.4889 28.3234V27.759C77.4889 27.4839 77.5482 27.2929 77.667 27.1842C77.7858 27.0755 77.9946 27.0212 78.2915 27.0212H82.9979C83.3255 27.0212 83.5595 27.0966 83.7016 27.249C83.842 27.4015 83.914 27.6364 83.914 27.9553V33.688C83.914 33.9053 83.8924 34.0683 83.8474 34.177C83.8024 34.2857 83.7052 34.3838 83.5576 34.4697C82.1898 35.3092 80.3307 35.7298 77.982 35.7298C75.4479 35.728 73.4934 35.062 72.1112 33.7301Z" fill="black"/>
<path d="M88.7248 35.1514C87.7889 34.7676 87.042 34.1735 86.4841 33.3708C85.9262 32.5681 85.6472 31.5657 85.6472 30.3634C85.6472 28.4951 86.1601 27.0773 87.186 26.1064C88.2119 25.1372 89.6697 24.6517 91.5576 24.6517C93.4312 24.6517 94.8476 25.1232 95.8069 26.0626C96.7661 27.0037 97.2449 28.3637 97.2449 30.1461C97.2449 30.6526 97.0073 30.9067 96.5304 30.9067H88.3451C88.3451 31.8618 88.687 32.5979 89.3709 33.1114C90.0548 33.6249 91.0069 33.8826 92.2253 33.8826C93.3988 33.8826 94.4553 33.6214 95.3929 33.1009C95.4973 33.0431 95.5783 33.0133 95.6377 33.0133C95.7421 33.0133 95.8231 33.0781 95.8825 33.2096L96.417 34.1437C96.462 34.2313 96.4836 34.3102 96.4836 34.382C96.4836 34.4837 96.417 34.5766 96.2838 34.6642C95.6737 35.027 95.0168 35.2934 94.3095 35.4669C93.604 35.6404 92.7887 35.728 91.8672 35.728C90.7099 35.728 89.6625 35.5352 88.7248 35.1514ZM94.6568 29.2996C94.6568 28.4022 94.3995 27.6995 93.8865 27.193C93.3736 26.6865 92.6033 26.4324 91.5774 26.4324C90.5372 26.4324 89.7381 26.6935 89.1801 27.214C88.6222 27.7345 88.3433 28.4303 88.3433 29.2996H94.6568Z" fill="black"/>
<path d="M101.503 34.7063C100.864 34.0263 100.544 33.0851 100.544 31.8829V27.0177H99.2732C98.9763 27.0177 98.7783 26.9669 98.6829 26.8652C98.5857 26.7636 98.5371 26.576 98.5371 26.3009V25.7155C98.5371 25.4404 98.5857 25.2493 98.6829 25.1407C98.7801 25.032 98.9763 24.9777 99.2732 24.9777H100.544V23.7824C100.544 23.4792 100.6 23.1918 100.711 22.9254C100.823 22.6573 100.997 22.3208 101.235 21.9159C101.323 21.7424 101.41 21.6303 101.492 21.5795C101.573 21.5286 101.719 21.5041 101.928 21.5041H102.664C102.932 21.5041 103.121 21.5654 103.233 21.6881C103.344 21.8108 103.4 21.9966 103.4 22.2419V24.9777H106.031C106.328 24.9777 106.524 25.032 106.622 25.1407C106.719 25.2493 106.767 25.4421 106.767 25.7155V26.3009C106.767 26.576 106.719 26.7636 106.622 26.8652C106.524 26.9669 106.328 27.0177 106.031 27.0177H103.4V31.7952C103.4 32.4612 103.519 32.9432 103.756 33.2393C103.994 33.5355 104.404 33.6845 104.984 33.6845C105.326 33.6845 105.616 33.6442 105.853 33.5653C106.091 33.4865 106.352 33.3515 106.634 33.164C106.708 33.1061 106.791 33.0764 106.879 33.0764C106.969 33.0764 107.057 33.1412 107.147 33.2726L107.793 34.3154C107.853 34.3873 107.881 34.4679 107.881 34.5538C107.881 34.6554 107.808 34.7571 107.658 34.857C106.735 35.4353 105.635 35.7263 104.358 35.7263C103.094 35.728 102.142 35.388 101.503 34.7063Z" fill="black"/>
<path d="M109.822 35.2057C109.689 35.0761 109.62 34.8798 109.62 34.6204V21.2202C109.62 21.0029 109.658 20.8504 109.732 20.7645C109.805 20.6769 109.962 20.6348 110.2 20.6348H111.738C111.976 20.6348 112.136 20.6786 112.219 20.7645C112.3 20.8521 112.341 21.0029 112.341 21.2202V26.0853C112.833 25.6069 113.405 25.2494 114.058 25.011C114.712 24.7727 115.486 24.6517 116.378 24.6517C117.582 24.6517 118.552 24.9672 119.288 25.5964C120.025 26.2255 120.392 27.1702 120.392 28.4303V34.6204C120.392 34.8815 120.329 35.0761 120.203 35.2057C120.077 35.3354 119.864 35.402 119.567 35.402H118.385C118.088 35.402 117.872 35.3372 117.739 35.2057C117.606 35.0761 117.537 34.8798 117.537 34.6204V28.6055C117.537 27.8957 117.363 27.3928 117.014 27.0966C116.664 26.8004 116.133 26.6514 115.419 26.6514C114.928 26.6514 114.456 26.7461 114.003 26.9336C113.549 27.1229 113.18 27.3822 112.899 27.7152C112.617 28.0482 112.475 28.432 112.475 28.8667V34.6221C112.475 34.8833 112.412 35.0778 112.286 35.2075C112.16 35.3372 111.94 35.4038 111.629 35.4038H110.47C110.171 35.402 109.955 35.3354 109.822 35.2057Z" fill="black"/>
<path d="M125.544 35.1514C124.609 34.7676 123.862 34.1735 123.304 33.3708C122.746 32.5681 122.467 31.5657 122.467 30.3634C122.467 28.4951 122.98 27.0773 124.006 26.1064C125.031 25.1372 126.489 24.6517 128.377 24.6517C130.251 24.6517 131.667 25.1232 132.626 26.0626C133.586 27.0037 134.064 28.3637 134.064 30.1461C134.064 30.6526 133.827 30.9067 133.35 30.9067H125.165C125.165 31.8618 125.507 32.5979 126.191 33.1114C126.874 33.6249 127.826 33.8826 129.045 33.8826C130.218 33.8826 131.275 33.6214 132.212 33.1009C132.317 33.0431 132.398 33.0133 132.457 33.0133C132.562 33.0133 132.643 33.0781 132.702 33.2096L133.237 34.1437C133.282 34.2313 133.303 34.3102 133.303 34.382C133.303 34.4837 133.237 34.5766 133.103 34.6642C132.493 35.027 131.836 35.2934 131.129 35.4669C130.422 35.6404 129.608 35.728 128.687 35.728C127.53 35.728 126.48 35.5352 125.544 35.1514ZM131.476 29.2996C131.476 28.4022 131.219 27.6995 130.706 27.193C130.193 26.6865 129.423 26.4324 128.397 26.4324C127.357 26.4324 126.558 26.6935 126 27.214C125.442 27.7345 125.163 28.4303 125.163 29.2996H131.476Z" fill="black"/>
<path d="M136.449 35.2058C136.316 35.0761 136.248 34.8798 136.248 34.6204V25.5648C136.248 25.3475 136.285 25.1951 136.359 25.1092C136.433 25.0233 136.59 24.9795 136.827 24.9795H138.1C138.263 24.9795 138.382 25.0128 138.456 25.0776C138.53 25.1425 138.575 25.2546 138.591 25.4141L138.657 26.1958C139.534 25.1688 140.688 24.6535 142.115 24.6535C142.768 24.6535 143.267 24.7622 143.609 24.9795C143.697 25.0373 143.754 25.0987 143.776 25.1635C143.798 25.2283 143.794 25.3055 143.765 25.3913L143.364 26.6935C143.319 26.839 143.238 26.9108 143.119 26.9108L142.941 26.867C142.585 26.7075 142.174 26.6287 141.713 26.6287C140.956 26.6287 140.331 26.8355 139.84 27.2473C139.349 27.6592 139.104 28.2218 139.104 28.9298V34.6204C139.104 34.8815 139.041 35.0761 138.915 35.2058C138.789 35.3355 138.569 35.4021 138.258 35.4021H137.099C136.798 35.4021 136.584 35.3355 136.449 35.2058Z" fill="black"/>
<path d="M39.9746 25.8488C39.9746 33.1675 33.8824 39.1035 26.3648 39.1035C25.4775 39.1035 24.6118 39.0211 23.7713 38.8634C17.5711 37.6979 12.8666 32.4349 12.755 26.0801C12.7532 26.0047 12.7532 25.9276 12.7532 25.8488C12.7532 25.7699 12.7532 25.6945 12.755 25.6174C12.881 21.1922 16.6029 17.6449 21.1779 17.6449C22.0813 17.6449 22.9542 17.7834 23.7713 18.0428C20.3878 19.1066 17.9401 22.1981 17.9401 25.8488C17.9401 29.4994 20.3878 32.5927 23.7713 33.6547C24.5884 33.9141 25.4595 34.0526 26.3648 34.0526C30.938 34.0526 34.6617 30.5036 34.7877 26.0801C34.7877 26.0047 34.7895 25.9259 34.7895 25.8488C34.7895 25.7716 34.7877 25.6945 34.7877 25.6174C34.6761 19.2626 29.9715 13.9996 23.7713 12.8359C24.6118 12.6781 25.4775 12.5958 26.3648 12.5958C33.8824 12.5975 39.9746 18.53 39.9746 25.8488Z" fill="url(#paint0_linear)"/>
<path d="M34.7895 25.888C34.7895 25.9633 34.7877 26.0422 34.7859 26.1193C34.6473 30.5446 30.9128 34.0813 26.3396 34.069C25.4361 34.0672 24.565 33.9253 23.7479 33.6641C27.1351 32.6108 29.5918 29.5246 29.6026 25.8739C29.6134 22.2233 27.1747 19.123 23.7947 18.0522C22.9776 17.791 22.1066 17.6508 21.2031 17.6473C16.6281 17.6351 12.8954 21.1735 12.7568 25.597C12.755 25.6724 12.755 25.7495 12.7532 25.8284C12.7514 25.9072 12.7532 25.9826 12.755 26.0597C12.8486 32.4146 17.537 37.6898 23.7335 38.8728C22.8931 39.0288 22.0274 39.1094 21.1401 39.1059C13.6243 39.0849 7.54828 33.1331 7.56988 25.8143C7.59148 18.4956 13.7017 12.5789 21.2175 12.5999C22.1048 12.6017 22.9704 12.6875 23.8109 12.847C30.0075 14.0265 34.6977 19.3035 34.7895 25.6584C34.7895 25.7337 34.7913 25.8108 34.7895 25.888Z" fill="url(#paint1_linear)"/>
<defs>
<linearGradient id="paint0_linear" x1="15.0117" y1="31.7017" x2="33.7345" y2="22.0123" gradientUnits="userSpaceOnUse">
<stop offset="0.4038" stop-color="#1BBEA1"/>
<stop offset="0.4915" stop-color="#2FC8AA"/>
<stop offset="0.8394" stop-color="#7BF0CA"/>
<stop offset="1" stop-color="#99FFD7"/>
</linearGradient>
<linearGradient id="paint1_linear" x1="19.2887" y1="41.8962" x2="22.3821" y2="13.9933" gradientUnits="userSpaceOnUse">
<stop offset="0.0173" stop-color="#1BBEA1"/>
<stop offset="1" stop-color="#99FFD7"/>
</linearGradient>
</defs>
</svg>
