<svg width="144" height="31" viewBox="0 0 144 31" fill="none" xmlns="http://www.w3.org/2000/svg">
<path d="M46.5302 23.61C46.3952 23.4803 46.3286 23.284 46.3286 23.0246V11.1667H42.4267C42.1298 11.1667 41.9246 11.1089 41.813 10.9932C41.7014 10.8775 41.6456 10.6812 41.6456 10.4061V9.82073C41.6456 9.54557 41.7014 9.34753 41.813 9.2231C41.9246 9.10042 42.128 9.03908 42.4267 9.03908H53.0867C53.3837 9.03908 53.5925 9.10042 53.7113 9.2231C53.83 9.34578 53.8894 9.54557 53.8894 9.82073V10.4061C53.8894 10.6812 53.83 10.8775 53.7113 10.9932C53.5925 11.1089 53.3837 11.1667 53.0867 11.1667H49.1848V23.0246C49.1848 23.2858 49.1219 23.4803 48.9959 23.61C48.8699 23.7397 48.6503 23.8063 48.3372 23.8063H47.1781C46.8793 23.8063 46.6634 23.7397 46.5302 23.61Z" fill="white"/>
<path d="M54.1899 22.6443C53.1425 21.6523 52.6169 20.3029 52.6169 18.5941C52.6169 16.8853 53.1407 15.5358 54.1899 14.5439C55.2374 13.5519 56.7276 13.056 58.6605 13.056C60.5935 13.056 62.0873 13.5519 63.1438 14.5439C64.2002 15.5358 64.7276 16.8853 64.7276 18.5941C64.7276 20.3029 64.2002 21.6523 63.1438 22.6443C62.0873 23.6363 60.5935 24.1322 58.6605 24.1322C56.7294 24.1322 55.2392 23.6363 54.1899 22.6443ZM61.0704 21.2002C61.6212 20.6061 61.8947 19.7385 61.8947 18.5941C61.8947 17.4654 61.6194 16.6067 61.0704 16.0213C60.5197 15.4342 59.717 15.1415 58.6623 15.1415C57.6221 15.1415 56.823 15.4342 56.2651 16.0213C55.7071 16.6084 55.4282 17.4654 55.4282 18.5941C55.4282 19.7228 55.7071 20.5885 56.2651 21.1897C56.823 21.7908 57.6221 22.0905 58.6623 22.0905C59.717 22.0905 60.5197 21.7943 61.0704 21.2002Z" fill="white"/>
<path d="M68.5413 22.1343C67.1591 20.8024 66.468 18.8991 66.468 16.4227C66.468 13.962 67.1627 12.0623 68.5521 10.7215C69.9416 9.38256 71.8943 8.71307 74.4068 8.71307C75.4182 8.71307 76.3613 8.81472 77.2396 9.01627C78.1161 9.21957 78.845 9.50874 79.4245 9.88555C79.5595 9.97318 79.6261 10.0661 79.6261 10.1677C79.6261 10.2396 79.5955 10.3272 79.5379 10.4288L78.8918 11.5154C78.8018 11.6451 78.7136 11.71 78.6236 11.71C78.5786 11.71 78.4814 11.6732 78.3338 11.6013C77.3224 11.051 76.1183 10.7759 74.7217 10.7759C73.0264 10.7759 71.6963 11.242 70.7299 12.1762C69.7634 13.1103 69.2792 14.5246 69.2792 16.4227C69.2792 18.333 69.7472 19.7526 70.6849 20.6797C71.6207 21.6068 72.9076 22.0695 74.5435 22.0695C75.1375 22.0695 75.717 22.0222 76.2839 21.9275C76.849 21.8329 77.3098 21.6997 77.6661 21.5262V17.5093H74.7217C74.4248 17.5093 74.216 17.4479 74.0972 17.3252C73.9784 17.2026 73.919 17.0028 73.919 16.7276V16.1633C73.919 15.8881 73.9784 15.6971 74.0972 15.5884C74.216 15.4798 74.4248 15.4254 74.7217 15.4254H79.4281C79.7557 15.4254 79.9896 15.5008 80.1318 15.6533C80.2722 15.8058 80.3442 16.0406 80.3442 16.3596V22.0923C80.3442 22.3096 80.3226 22.4726 80.2776 22.5812C80.2326 22.6899 80.1354 22.788 79.9878 22.8739C78.62 23.7134 76.7609 24.134 74.4122 24.134C71.8781 24.1323 69.9236 23.4663 68.5413 22.1343Z" fill="white"/>
<path d="M85.1549 23.5556C84.219 23.1718 83.4721 22.5777 82.9142 21.775C82.3562 20.9723 82.0773 19.9699 82.0773 18.7676C82.0773 16.8994 82.5902 15.4815 83.6161 14.5106C84.6419 13.5414 86.0997 13.056 87.9877 13.056C89.8612 13.056 91.2777 13.5274 92.2369 14.4668C93.1962 15.4079 93.6749 16.7679 93.6749 18.5503C93.6749 19.0568 93.4374 19.3109 92.9604 19.3109H84.7751C84.7751 20.2661 85.1171 21.0021 85.801 21.5156C86.4849 22.0291 87.437 22.2868 88.6554 22.2868C89.8288 22.2868 90.8853 22.0256 91.823 21.5051C91.9274 21.4473 92.0084 21.4175 92.0677 21.4175C92.1721 21.4175 92.2531 21.4823 92.3125 21.6138L92.847 22.5479C92.892 22.6355 92.9136 22.7144 92.9136 22.7863C92.9136 22.8879 92.847 22.9808 92.7139 23.0684C92.1037 23.4312 91.4468 23.6976 90.7395 23.8711C90.034 24.0446 89.2187 24.1322 88.2972 24.1322C87.14 24.1322 86.0925 23.9395 85.1549 23.5556ZM91.0869 17.7038C91.0869 16.8065 90.8295 16.1037 90.3166 15.5972C89.8036 15.0907 89.0333 14.8366 88.0075 14.8366C86.9672 14.8366 86.1681 15.0977 85.6102 15.6182C85.0523 16.1387 84.7733 16.8345 84.7733 17.7038H91.0869Z" fill="white"/>
<path d="M97.9332 23.1105C97.2943 22.4305 96.9739 21.4894 96.9739 20.2871V15.4219H95.7033C95.4063 15.4219 95.2083 15.3711 95.1129 15.2695C95.0158 15.1678 94.9672 14.9803 94.9672 14.7051V14.1198C94.9672 13.8446 95.0158 13.6536 95.1129 13.5449C95.2101 13.4363 95.4063 13.3819 95.7033 13.3819H96.9739V12.1867C96.9739 11.8835 97.0297 11.5961 97.1413 11.3297C97.2529 11.0615 97.4274 10.725 97.665 10.3202C97.7532 10.1467 97.8396 10.0345 97.9224 9.98369C98.0034 9.93286 98.1491 9.90833 98.3579 9.90833H99.094C99.3622 9.90833 99.5512 9.96967 99.6627 10.0923C99.7743 10.215 99.8301 10.4008 99.8301 10.6462V13.3819H102.461C102.758 13.3819 102.955 13.4363 103.052 13.5449C103.149 13.6536 103.197 13.8464 103.197 14.1198V14.7051C103.197 14.9803 103.149 15.1678 103.052 15.2695C102.955 15.3711 102.758 15.4219 102.461 15.4219H99.8301V20.1995C99.8301 20.8654 99.9489 21.3474 100.186 21.6436C100.424 21.9398 100.834 22.0887 101.414 22.0887C101.756 22.0887 102.046 22.0484 102.283 21.9696C102.521 21.8907 102.782 21.7557 103.064 21.5682C103.138 21.5104 103.221 21.4806 103.309 21.4806C103.399 21.4806 103.487 21.5454 103.577 21.6769L104.223 22.7197C104.283 22.7915 104.312 22.8721 104.312 22.958C104.312 23.0597 104.238 23.1613 104.088 23.2612C103.165 23.8396 102.065 24.1305 100.788 24.1305C99.5242 24.1322 98.5721 23.7922 97.9332 23.1105Z" fill="white"/>
<path d="M106.252 23.61C106.118 23.4803 106.05 23.284 106.05 23.0246V9.62444C106.05 9.40712 106.088 9.25465 106.162 9.16877C106.235 9.08114 106.392 9.03908 106.63 9.03908H108.168C108.406 9.03908 108.566 9.08289 108.649 9.16877C108.73 9.2564 108.771 9.40712 108.771 9.62444V14.4896C109.263 14.0111 109.835 13.6536 110.488 13.4153C111.142 13.1769 111.915 13.056 112.808 13.056C114.012 13.056 114.982 13.3714 115.718 14.0006C116.454 14.6298 116.822 15.5744 116.822 16.8345V23.0246C116.822 23.2858 116.759 23.4803 116.633 23.61C116.507 23.7397 116.294 23.8063 115.997 23.8063H114.815C114.518 23.8063 114.302 23.7414 114.169 23.61C114.036 23.4803 113.967 23.284 113.967 23.0246V17.0098C113.967 16.3 113.793 15.797 113.443 15.5008C113.094 15.2046 112.563 15.0557 111.849 15.0557C111.358 15.0557 110.886 15.1503 110.432 15.3378C109.979 15.5271 109.61 15.7865 109.329 16.1195C109.047 16.4525 108.904 16.8363 108.904 17.2709V23.0264C108.904 23.2875 108.841 23.4821 108.715 23.6117C108.59 23.7414 108.37 23.808 108.059 23.808H106.9C106.601 23.8063 106.385 23.7397 106.252 23.61Z" fill="white"/>
<path d="M121.974 23.5556C121.039 23.1718 120.292 22.5777 119.734 21.775C119.176 20.9723 118.897 19.9699 118.897 18.7676C118.897 16.8994 119.41 15.4815 120.436 14.5106C121.462 13.5414 122.919 13.056 124.807 13.056C126.681 13.056 128.097 13.5274 129.056 14.4668C130.016 15.4079 130.495 16.7679 130.495 18.5503C130.495 19.0568 130.257 19.3109 129.78 19.3109H121.595C121.595 20.2661 121.937 21.0021 122.621 21.5156C123.304 22.0291 124.257 22.2868 125.475 22.2868C126.648 22.2868 127.705 22.0256 128.643 21.5051C128.747 21.4473 128.828 21.4175 128.887 21.4175C128.992 21.4175 129.073 21.4823 129.132 21.6138L129.667 22.5479C129.712 22.6355 129.733 22.7144 129.733 22.7863C129.733 22.8879 129.667 22.9808 129.533 23.0684C128.923 23.4312 128.266 23.6976 127.559 23.8711C126.852 24.0446 126.038 24.1322 125.117 24.1322C123.96 24.1322 122.91 23.9395 121.974 23.5556ZM127.906 17.7038C127.906 16.8065 127.649 16.1037 127.136 15.5972C126.623 15.0907 125.853 14.8366 124.827 14.8366C123.787 14.8366 122.988 15.0977 122.43 15.6182C121.872 16.1387 121.593 16.8345 121.593 17.7038H127.906Z" fill="white"/>
<path d="M132.879 23.61C132.746 23.4803 132.678 23.284 132.678 23.0246V13.9691C132.678 13.7518 132.715 13.5993 132.789 13.5134C132.863 13.4275 133.02 13.3837 133.257 13.3837H134.53C134.693 13.3837 134.812 13.417 134.886 13.4819C134.96 13.5467 135.005 13.6589 135.021 13.8184L135.087 14.6C135.964 13.573 137.118 13.0577 138.545 13.0577C139.198 13.0577 139.697 13.1664 140.039 13.3837C140.127 13.4416 140.184 13.5029 140.206 13.5677C140.228 13.6326 140.224 13.7097 140.195 13.7956L139.794 15.0977C139.749 15.2432 139.668 15.3151 139.549 15.3151L139.371 15.2712C139.015 15.1118 138.604 15.0329 138.143 15.0329C137.386 15.0329 136.761 15.2397 136.27 15.6516C135.779 16.0634 135.534 16.626 135.534 17.334V23.0246C135.534 23.2858 135.471 23.4803 135.345 23.61C135.219 23.7397 134.999 23.8063 134.688 23.8063H133.529C133.228 23.8063 133.014 23.7397 132.879 23.61Z" fill="white"/>
<path d="M36.4048 15.253C36.4048 22.5718 30.3126 28.5077 22.795 28.5077C21.9077 28.5077 21.042 28.4254 20.2015 28.2676C14.0013 27.1022 9.29674 21.8392 9.18515 15.4843C9.18335 15.409 9.18335 15.3319 9.18335 15.253C9.18335 15.1741 9.18335 15.0988 9.18515 15.0216C9.31113 10.5964 13.033 7.04917 17.608 7.04917C18.5115 7.04917 19.3844 7.18763 20.2015 7.44701C16.8179 8.51082 14.3703 11.6024 14.3703 15.253C14.3703 18.9036 16.8179 21.9969 20.2015 23.059C21.0186 23.3183 21.8897 23.4568 22.795 23.4568C27.3681 23.4568 31.0919 19.9078 31.2178 15.4843C31.2178 15.409 31.2196 15.3301 31.2196 15.253C31.2196 15.1759 31.2178 15.0988 31.2178 15.0216C31.1063 8.6668 26.4017 3.40381 20.2015 2.2401C21.042 2.08237 21.9077 2 22.795 2C30.3126 2.00175 36.4048 7.93423 36.4048 15.253Z" fill="url(#paint0_linear)"/>
<path d="M31.2197 15.2922C31.2197 15.3676 31.2179 15.4464 31.2161 15.5235C31.0775 19.9488 27.343 23.4855 22.7698 23.4732C21.8663 23.4715 20.9952 23.3295 20.1781 23.0684C23.5653 22.0151 26.0219 18.9288 26.0327 15.2782C26.0435 11.6276 23.6049 8.52724 20.2249 7.45641C19.4078 7.19528 18.5367 7.05507 17.6333 7.05157C13.0583 7.0393 9.32555 10.5778 9.18697 15.0013C9.18517 15.0766 9.18517 15.1537 9.18337 15.2326C9.18157 15.3115 9.18337 15.3868 9.18517 15.4639C9.27876 21.8188 13.9671 27.094 20.1637 28.277C19.3232 28.433 18.4575 28.5136 17.5703 28.5101C10.0545 28.4891 3.97846 22.5373 4.00006 15.2186C4.02165 7.89982 10.1318 1.98311 17.6476 2.00415C18.5349 2.0059 19.4006 2.09177 20.2411 2.25126C26.4377 3.43074 31.1279 8.70775 31.2197 15.0626C31.2197 15.138 31.2215 15.2151 31.2197 15.2922Z" fill="url(#paint1_linear)"/>
<defs>
<linearGradient id="paint0_linear" x1="11.4418" y1="21.1059" x2="30.1647" y2="11.4165" gradientUnits="userSpaceOnUse">
<stop offset="0.4038" stop-color="#1BBEA1"/>
<stop offset="0.4915" stop-color="#2FC8AA"/>
<stop offset="0.8394" stop-color="#7BF0CA"/>
<stop offset="1" stop-color="#99FFD7"/>
</linearGradient>
<linearGradient id="paint1_linear" x1="15.7189" y1="31.3004" x2="18.8123" y2="3.39758" gradientUnits="userSpaceOnUse">
<stop offset="0.0173" stop-color="#1BBEA1"/>
<stop offset="1" stop-color="#99FFD7"/>
</linearGradient>
</defs>
</svg>
